<svg width="65" height="64" viewBox="0 0 65 64" fill="none" xmlns="http://www.w3.org/2000/svg">
<g clip-path="url(#clip0_6485_4202)">
<path fill-rule="evenodd" clip-rule="evenodd" d="M11.9395 39.2095V59.7778C11.9395 61.9944 14.0374 64 16.3561 64H60.5228C62.8415 64 64.9395 61.9944 64.9395 59.7778V30.2222C64.9395 28.0056 62.8415 26 60.5228 26H39.1119C35.6091 34.2298 27.4481 40 17.9395 40C15.8638 40 13.8523 39.725 11.9395 39.2095ZM60.5228 55.5556C60.5228 51.3333 51.6895 49.0322 47.2728 49.0322C42.8561 49.0322 34.0228 51.3333 34.0228 55.5556V57.6667H60.5228V55.5556ZM51.9574 34.1883C50.7149 33.0006 49.0298 32.3333 47.2728 32.3333C45.5157 32.3333 43.8306 33.0006 42.5882 34.1883C41.3458 35.3761 40.6478 36.987 40.6478 38.6667C40.6478 40.3464 41.3458 41.9573 42.5882 43.145C43.8306 44.3327 45.5157 45 47.2728 45C49.0298 45 50.7149 44.3327 51.9574 43.145C53.1998 41.9573 53.8978 40.3464 53.8978 38.6667C53.8978 36.987 53.1998 35.3761 51.9574 34.1883Z" fill="#356E73"/>
<path d="M0.939453 17C0.939453 7.6262 8.56565 0 17.9395 0C27.3133 0 34.9395 7.6262 34.9395 17C34.9395 26.3738 27.3133 34 17.9395 34C8.56565 34 0.939453 26.3738 0.939453 17Z" fill="#F68585"/>
<path d="M15.9395 20V29L23.9395 15H19.9395V5L11.9395 20H15.9395Z" fill="white"/>
</g>
<defs>
<clipPath id="clip0_6485_4202">
<rect width="64" height="64" fill="white" transform="translate(0.939453)"/>
</clipPath>
</defs>
</svg>
