<svg width="65" height="64" viewBox="0 0 65 64" fill="none" xmlns="http://www.w3.org/2000/svg">
<g clip-path="url(#clip0_2241_7698)">
<path fill-rule="evenodd" clip-rule="evenodd" d="M12.3176 38.2722C12.0734 38.9068 11.9395 39.5963 11.9395 40.317V46.5279C11.9395 49.6723 14.4884 52.2213 17.6328 52.2213H20.7383C21.5958 52.2213 22.291 51.526 22.291 50.6685V38.5679C20.884 38.8513 19.4288 39 17.9395 39C15.9971 39 14.1128 38.747 12.3176 38.2722ZM39.9233 16.1509C48.1348 16.9024 54.5879 23.8276 54.5879 32.2317V32.6458H60.7988V32.2317C60.7988 26.2593 58.473 20.6444 54.2499 16.4213C50.1013 12.2727 44.6097 9.95504 38.7553 9.87453C39.4352 11.8552 39.8398 13.9626 39.9233 16.1509ZM35.6203 64C33.7519 64 32.2373 62.233 32.2373 60.0532C32.2373 57.8734 33.7519 56.1064 35.6203 56.1064H41.2586C43.127 56.1064 44.6416 57.8734 44.6416 60.0532C44.6416 62.233 43.127 64 41.2586 64H35.6203ZM55.1846 54.9787V55.4016C55.1846 56.5675 54.5141 57.516 53.6901 57.516H46.9484C47.0559 58.1496 47.1144 58.8098 47.1144 59.4894C47.1144 60.2704 47.0376 61.0261 46.8969 61.7447H53.6901C56.1622 61.7447 58.1735 58.8992 58.1735 55.4016V54.9787H55.1846ZM54.5879 34.6236H59.2461C62.3905 34.6236 64.9395 37.1726 64.9395 40.317V46.5279C64.9395 49.6723 62.3905 52.2213 59.2461 52.2213H56.1406C55.2831 52.2213 54.5879 51.526 54.5879 50.6685V34.6236Z" fill="#356E73"/>
<path d="M0.939453 17C0.939453 7.6262 8.56565 0 17.9395 0C27.3133 0 34.9395 7.6262 34.9395 17C34.9395 26.3738 27.3133 34 17.9395 34C8.56565 34 0.939453 26.3738 0.939453 17Z" fill="#2FC5F4"/>
<path fill-rule="evenodd" clip-rule="evenodd" d="M17.9395 7C16.8349 7 15.9395 7.89543 15.9395 9C15.9395 10.1046 16.8349 11 17.9395 11C19.044 11 19.9395 10.1046 19.9395 9C19.9395 7.89543 19.044 7 17.9395 7ZM17.9395 14C16.8349 14 15.9395 14.8954 15.9395 16V25C15.9395 26.1046 16.8349 27 17.9395 27C19.044 27 19.9395 26.1046 19.9395 25V16C19.9395 14.8954 19.044 14 17.9395 14Z" fill="white"/>
</g>
<defs>
<clipPath id="clip0_2241_7698">
<rect width="64" height="64" fill="white" transform="translate(0.939453)"/>
</clipPath>
</defs>
</svg>
