<svg width="70" height="64" viewBox="0 0 70 64" fill="none" xmlns="http://www.w3.org/2000/svg">
<path d="M13.9729 36.2843L15.4975 36.9431L17.3087 36.1756C17.3118 36.1744 17.2537 36.173 17.257 36.1716C24.6316 33.0749 29.4204 25.8644 29.4024 17.8841V7.39997L15.4861 0L1.9751 7.38895V18.0955C1.9751 25.9724 6.71641 33.1119 13.9729 36.2843ZM8.4878 17.0492C9.06739 16.5556 9.93834 16.6239 10.4334 17.202L13.5858 20.8836L21.9201 14.1211C22.5113 13.6412 23.3807 13.7304 23.8618 14.3199C24.3429 14.9095 24.2535 15.7766 23.6624 16.2564L14.2827 23.8671C14.2696 23.8778 14.2558 23.8869 14.2425 23.8969C14.2293 23.9069 14.2118 23.9206 14.196 23.9313C14.1801 23.942 14.1587 23.9556 14.1401 23.9673C14.1242 23.9771 14.1085 23.9872 14.0925 23.9963C14.0726 24.0075 14.0524 24.0175 14.0323 24.0277C14.0166 24.0356 14.001 24.044 13.9852 24.0512C13.9636 24.061 13.9417 24.0695 13.92 24.0781C13.9048 24.0839 13.8899 24.0906 13.8746 24.0953C13.8513 24.1037 13.8273 24.1104 13.8035 24.1175C13.7896 24.1216 13.7756 24.1264 13.7614 24.1302C13.7362 24.1367 13.7097 24.1417 13.685 24.1474C13.6721 24.15 13.6591 24.1534 13.646 24.1555C13.6179 24.1603 13.5896 24.1634 13.5613 24.1665C13.5508 24.1677 13.5403 24.1696 13.5294 24.1704C13.4906 24.1737 13.4516 24.1754 13.4126 24.1754C13.3631 24.1754 13.3136 24.1727 13.2645 24.1675C13.2505 24.166 13.2365 24.1627 13.2225 24.1608C13.188 24.156 13.1535 24.1512 13.119 24.1436C13.1018 24.1398 13.0845 24.1341 13.0673 24.1298C13.0363 24.1219 13.0054 24.1144 12.9752 24.1044C12.9564 24.0982 12.9384 24.0899 12.9198 24.083C12.8919 24.0724 12.8637 24.0622 12.8363 24.0497C12.817 24.0407 12.7982 24.0301 12.7792 24.0203C12.7537 24.0072 12.7275 23.9946 12.7033 23.9798C12.6838 23.9681 12.6654 23.9547 12.6462 23.942C12.6233 23.9267 12.6 23.9117 12.5772 23.8948C12.5583 23.8804 12.5403 23.8642 12.522 23.8487C12.5012 23.8315 12.4798 23.8143 12.4598 23.7949C12.4397 23.7754 12.4253 23.7594 12.408 23.7415C12.3908 23.7237 12.3763 23.7101 12.3614 23.6929L8.33393 18.9889C7.83955 18.4109 7.90837 17.5426 8.4878 17.0492Z" fill="#48D4CB"/>
<path fill-rule="evenodd" clip-rule="evenodd" d="M3.0937 45.5095L9.50652 42.5951C9.74698 42.4826 9.94794 42.3006 10.0835 42.0728L12.3605 38.4292L12.4798 38.4838C12.6445 38.5593 12.8077 38.6342 12.9767 38.7055L15.3013 39.7083C15.6508 39.8597 16.0475 39.8604 16.3977 39.7105L18.4642 38.8642C22.4056 37.1358 25.7825 34.3404 28.212 30.7952H42.7731C44.4795 30.7777 46.0965 31.5548 47.1461 32.8967L54.2795 42.1994C54.4668 42.437 54.7275 42.6065 55.0212 42.6811L67.0461 45.9253C68.6828 46.3714 69.9395 47.8589 69.9395 49.551V53.8947C69.9395 55.9705 68.019 57.8055 65.9375 57.8055H65.0462C64.6168 53.233 60.5522 49.8734 55.9676 50.3017C51.9771 50.6743 48.8173 53.8259 48.4437 57.8055H22.9497C22.5204 53.233 18.4558 49.8734 13.8711 50.3015C9.88067 50.6741 6.72083 53.8257 6.3472 57.8055H4.59686C2.51549 57.8055 0.93988 55.9705 0.93988 53.8947V48.9365C0.917793 47.4707 1.76114 46.1286 3.0937 45.5095ZM56.7453 52.8718C59.8264 52.8718 62.3242 55.363 62.3242 58.4359C62.3242 61.5089 59.8264 64.0001 56.7453 64.0001C53.6641 64.0001 51.1663 61.5089 51.1663 58.4359C51.1697 55.3643 53.6655 52.8753 56.7453 52.8718ZM20.2275 58.4358C20.2274 55.3628 17.7296 52.8717 14.6484 52.8718C11.5688 52.8754 9.07307 55.3645 9.06962 58.4359V58.4361C9.06979 61.5091 11.5676 64.0002 14.6488 64.0001C17.7299 63.9999 20.2277 61.5088 20.2275 58.4358Z" fill="#356E73"/>
</svg>
