<svg width="69" height="64" viewBox="0 0 69 64" fill="none" xmlns="http://www.w3.org/2000/svg">
<g clip-path="url(#clip0_2240_227)">
<g filter="url(#filter0_d_2240_227)">
<path d="M17.8045 0C8.50513 0 0.939453 7.60339 0.939453 16.9492C0.939453 26.2949 8.50513 33.8983 17.8045 33.8983C27.1039 33.8983 34.6696 26.2949 34.6696 16.9492C34.6696 7.60339 27.1039 0 17.8045 0ZM23.0569 21.0761C22.7394 22.9737 21.3025 24.8982 19.0606 25.4697V26.4407C19.0606 27.1894 18.4565 27.7966 17.7114 27.7966C16.9664 27.7966 16.3622 27.1894 16.3622 26.4407V25.5997C15.2729 25.5051 14.3699 25.2094 13.0897 24.3677C12.4661 23.9578 12.2914 23.1174 12.6993 22.4907C13.107 21.8641 13.9434 21.6881 14.567 22.0983C15.2955 22.5772 15.7525 22.7849 16.3622 22.8712V17.1449C15.5005 16.7481 14.8564 16.3661 14.3279 15.9494C13.2082 15.0668 12.697 13.5357 12.9937 11.9532C13.3169 10.2287 14.5114 8.85668 16.1106 8.37261C16.1953 8.34698 16.2791 8.32352 16.3622 8.30129V7.45763C16.3622 6.70888 16.9664 6.10169 17.7114 6.10169C18.4565 6.10169 19.0606 6.70888 19.0606 7.45763V8.15281C20.3706 8.38074 21.2964 9.02888 21.7449 9.5463C22.2344 10.1109 22.1756 10.9675 21.6137 11.4593C21.0549 11.9483 20.2088 11.893 19.718 11.3365C19.6872 11.3052 19.4728 11.0978 19.0606 10.9449V15.3262C19.3001 15.4156 19.5395 15.5022 19.7744 15.5858C22.146 16.4282 23.4651 18.6347 23.0569 21.0761Z" fill="#F9A95A"/>
</g>
<path d="M19.0605 18.2154V22.5708C19.8195 22.134 20.2727 21.3615 20.3957 20.6266C20.4842 20.0964 20.5205 18.8333 19.0605 18.2154Z" fill="#F9A95A"/>
<path d="M15.6453 12.4556C15.5375 13.0304 15.6739 13.5643 15.993 13.8157C16.1053 13.9042 16.2292 13.9913 16.362 14.0769V11.2413C15.9503 11.5586 15.7234 12.039 15.6453 12.4556Z" fill="#F9A95A"/>
<path d="M8.21976 37.28C11.1921 38.7607 14.5381 39.5932 18.0744 39.5932C29.6668 39.5932 39.2191 30.6414 40.2459 19.2542H44.5188C47.3616 19.2542 50.0897 19.8332 52.6478 20.9776C54.7242 19.8468 57.0165 19.2542 59.3425 19.2542H62.7704C64.1342 19.2542 65.098 20.5893 64.6687 21.8838L62.076 29.7017C62.4214 30.3078 62.721 30.8868 62.9787 31.4576H65.9395C67.5963 31.4576 68.9395 32.8008 68.9395 34.4576V44.7288C68.9395 46.3857 67.5963 47.7288 65.9395 47.7288H62.9908C61.4095 51.3424 58.7813 54.4597 55.4798 56.6075C53.6853 57.7749 52.6141 59.7519 52.6141 61.8956V62C52.6141 63.1046 51.7186 64 50.6141 64H42.4712C41.3666 64 40.4712 63.1046 40.4712 62V59.9322H28.3283V62C28.3283 63.1046 27.4329 64 26.3283 64H18.1855C17.0809 64 16.1855 63.1046 16.1855 62V61.9661C16.1855 58.5627 14.9874 55.2515 12.8111 52.6427C9.10485 48.2007 7.60588 42.5885 8.21976 37.28ZM48.5664 33.4915C48.5664 34.6092 49.4725 35.5254 50.5902 35.5254C51.708 35.5254 52.6141 34.6092 52.6141 33.4915C52.6141 32.3738 51.708 31.4576 50.5902 31.4576C49.4725 31.4576 48.5664 32.3738 48.5664 33.4915Z" fill="#356E73"/>
</g>
<defs>
<filter id="filter0_d_2240_227" x="-3.06055" y="0" width="41.73" height="41.8983" filterUnits="userSpaceOnUse" color-interpolation-filters="sRGB">
<feFlood flood-opacity="0" result="BackgroundImageFix"/>
<feColorMatrix in="SourceAlpha" type="matrix" values="0 0 0 0 0 0 0 0 0 0 0 0 0 0 0 0 0 0 127 0" result="hardAlpha"/>
<feOffset dy="4"/>
<feGaussianBlur stdDeviation="2"/>
<feComposite in2="hardAlpha" operator="out"/>
<feColorMatrix type="matrix" values="0 0 0 0 0 0 0 0 0 0 0 0 0 0 0 0 0 0 0.25 0"/>
<feBlend mode="normal" in2="BackgroundImageFix" result="effect1_dropShadow_2240_227"/>
<feBlend mode="normal" in="SourceGraphic" in2="effect1_dropShadow_2240_227" result="shape"/>
</filter>
<clipPath id="clip0_2240_227">
<rect width="68" height="64" fill="white" transform="matrix(-1 0 0 1 68.9395 0)"/>
</clipPath>
</defs>
</svg>
